<mxfile host="app.diagrams.net" modified="2022-04-20T02:35:12.963Z" agent="5.0 (Windows NT 10.0; Win64; x64) AppleWebKit/537.36 (KHTML, like Gecko) Chrome/100.0.4896.127 Safari/537.36 Edg/100.0.1185.44" etag="l3MproxkAL5hAFlaM3IB" version="17.4.5" type="github">
  <diagram id="k36irDShYp6Saq6bUD-L" name="Page-1">
    <mxGraphModel dx="1374" dy="10794" grid="1" gridSize="10" guides="1" tooltips="1" connect="1" arrows="1" fold="1" page="1" pageScale="1" pageWidth="10000" pageHeight="10000" background="#FFFFFF" math="0" shadow="0">
      <root>
        <mxCell id="0" />
        <mxCell id="1" value="Layers" parent="0" />
        <mxCell id="9O_sJt_I0hQUCMNBLx7--13" value="" style="edgeStyle=orthogonalEdgeStyle;rounded=0;orthogonalLoop=1;jettySize=auto;html=1;" edge="1" parent="1" source="9O_sJt_I0hQUCMNBLx7--1" target="9O_sJt_I0hQUCMNBLx7--8">
          <mxGeometry relative="1" as="geometry" />
        </mxCell>
        <mxCell id="9O_sJt_I0hQUCMNBLx7--1" value="Receives a string and &#39;&lt;i&gt;x num of args&#39;.&lt;/i&gt;" style="rounded=1;whiteSpace=wrap;html=1;fillColor=#dae8fc;strokeColor=#6c8ebf;" vertex="1" parent="1">
          <mxGeometry x="410" y="120" width="120" height="60" as="geometry" />
        </mxCell>
        <mxCell id="9O_sJt_I0hQUCMNBLx7--5" value="" style="edgeStyle=orthogonalEdgeStyle;rounded=0;orthogonalLoop=1;jettySize=auto;html=1;" edge="1" parent="1" source="9O_sJt_I0hQUCMNBLx7--2" target="9O_sJt_I0hQUCMNBLx7--4">
          <mxGeometry relative="1" as="geometry" />
        </mxCell>
        <mxCell id="9O_sJt_I0hQUCMNBLx7--2" value="Evaluates caracter after percent sign" style="rounded=0;whiteSpace=wrap;html=1;fillColor=#d5e8d4;strokeColor=#82b366;" vertex="1" parent="1">
          <mxGeometry x="410" y="380" width="120" height="60" as="geometry" />
        </mxCell>
        <mxCell id="9O_sJt_I0hQUCMNBLx7--20" value="" style="edgeStyle=orthogonalEdgeStyle;rounded=0;orthogonalLoop=1;jettySize=auto;html=1;" edge="1" parent="1" source="9O_sJt_I0hQUCMNBLx7--4" target="9O_sJt_I0hQUCMNBLx7--19">
          <mxGeometry relative="1" as="geometry" />
        </mxCell>
        <mxCell id="9O_sJt_I0hQUCMNBLx7--4" value="Call va_arg macro and expand the first received argument if neecessary" style="whiteSpace=wrap;html=1;fillColor=#d5e8d4;strokeColor=#82b366;rounded=0;" vertex="1" parent="1">
          <mxGeometry x="410" y="490" width="120" height="60" as="geometry" />
        </mxCell>
        <mxCell id="9O_sJt_I0hQUCMNBLx7--14" value="No" style="edgeStyle=orthogonalEdgeStyle;rounded=0;orthogonalLoop=1;jettySize=auto;html=1;" edge="1" parent="1" source="9O_sJt_I0hQUCMNBLx7--8" target="9O_sJt_I0hQUCMNBLx7--11">
          <mxGeometry relative="1" as="geometry" />
        </mxCell>
        <mxCell id="9O_sJt_I0hQUCMNBLx7--18" value="Yes" style="edgeStyle=orthogonalEdgeStyle;rounded=0;orthogonalLoop=1;jettySize=auto;html=1;" edge="1" parent="1" source="9O_sJt_I0hQUCMNBLx7--8" target="9O_sJt_I0hQUCMNBLx7--2">
          <mxGeometry relative="1" as="geometry" />
        </mxCell>
        <mxCell id="9O_sJt_I0hQUCMNBLx7--8" value="Is a percent sign?" style="rhombus;whiteSpace=wrap;html=1;fillColor=#fff2cc;strokeColor=#d6b656;rounded=0;" vertex="1" parent="1">
          <mxGeometry x="410" y="250" width="120" height="80" as="geometry" />
        </mxCell>
        <mxCell id="9O_sJt_I0hQUCMNBLx7--16" value="" style="edgeStyle=orthogonalEdgeStyle;rounded=0;orthogonalLoop=1;jettySize=auto;html=1;" edge="1" parent="1" source="9O_sJt_I0hQUCMNBLx7--11" target="9O_sJt_I0hQUCMNBLx7--15">
          <mxGeometry relative="1" as="geometry" />
        </mxCell>
        <mxCell id="9O_sJt_I0hQUCMNBLx7--11" value="Write the caracter from string on STDOUT&amp;nbsp;" style="rounded=0;whiteSpace=wrap;html=1;fillColor=#d5e8d4;strokeColor=#82b366;" vertex="1" parent="1">
          <mxGeometry x="580" y="260" width="120" height="60" as="geometry" />
        </mxCell>
        <mxCell id="9O_sJt_I0hQUCMNBLx7--17" style="edgeStyle=orthogonalEdgeStyle;rounded=0;orthogonalLoop=1;jettySize=auto;html=1;entryX=0.5;entryY=0;entryDx=0;entryDy=0;" edge="1" parent="1" source="9O_sJt_I0hQUCMNBLx7--15" target="9O_sJt_I0hQUCMNBLx7--8">
          <mxGeometry relative="1" as="geometry">
            <Array as="points">
              <mxPoint x="790" y="220" />
              <mxPoint x="470" y="220" />
            </Array>
          </mxGeometry>
        </mxCell>
        <mxCell id="9O_sJt_I0hQUCMNBLx7--15" value="Go to the next caracter from string" style="whiteSpace=wrap;html=1;fillColor=#d5e8d4;strokeColor=#82b366;rounded=0;" vertex="1" parent="1">
          <mxGeometry x="740" y="260" width="120" height="60" as="geometry" />
        </mxCell>
        <mxCell id="9O_sJt_I0hQUCMNBLx7--19" value="Write the result on STDOUT" style="whiteSpace=wrap;html=1;fillColor=#dae8fc;strokeColor=#6c8ebf;rounded=1;" vertex="1" parent="1">
          <mxGeometry x="410" y="580" width="120" height="60" as="geometry" />
        </mxCell>
        <mxCell id="9O_sJt_I0hQUCMNBLx7--21" value="&lt;h1&gt;ft_printf&lt;/h1&gt;&lt;p&gt;Outputs a result on STDOUT according to specified format.&lt;/p&gt;" style="text;html=1;strokeColor=none;fillColor=none;spacing=5;spacingTop=-20;whiteSpace=wrap;overflow=hidden;rounded=0;" vertex="1" parent="1">
          <mxGeometry x="430" width="350" height="120" as="geometry" />
        </mxCell>
        <mxCell id="9O_sJt_I0hQUCMNBLx7--22" value="Background" parent="0" />
      </root>
    </mxGraphModel>
  </diagram>
</mxfile>
